<svg width="24" height="24" viewBox="0 0 24 24" fill="none" xmlns="http://www.w3.org/2000/svg">
<path fill-rule="evenodd" clip-rule="evenodd" d="M12 2C17.5228 2 22 6.47715 22 12C22 17.5228 17.5228 22 12 22C6.47715 22 2 17.5228 2 12C2 6.47715 6.47715 2 12 2ZM10 4.25C9.64397 4.25 9.34461 4.49838 9.26855 4.83301L9.25 4.98047C9.17576 7.9021 8.74318 9.5605 7.31738 12.6895C7.21187 12.9214 7.23142 13.1909 7.36914 13.4053C7.50716 13.6198 7.74488 13.75 8 13.75H10.4082C9.87871 15.3078 9.59733 17.0493 9.75195 19.0576C9.7778 19.3932 10.0244 19.67 10.3545 19.7354C10.6848 19.8005 11.0185 19.6377 11.1699 19.3369C12.9811 15.7392 14.6882 14.0313 17.4951 11.5635C17.7295 11.3574 17.8122 11.0274 17.7021 10.7354C17.592 10.4433 17.3121 10.25 17 10.25H13.4521C14.5031 8.66232 15.1701 7.10838 15.249 5.02832C15.2567 4.82466 15.1814 4.62632 15.04 4.47949C14.8987 4.33283 14.7037 4.25 14.5 4.25H10Z" fill="white" style="fill:white;fill-opacity:1;"/>
</svg>
